<svg width="174" height="18" viewBox="0 0 174 18" fill="none" xmlns="http://www.w3.org/2000/svg">
<path d="M171.861 4.272C171.475 4.272 171.118 4.176 170.789 3.984C170.463 3.792 170.204 3.534 170.011 3.21C169.818 2.882 169.722 2.526 169.722 2.142C169.722 1.758 169.818 1.404 170.011 1.08C170.204 0.752 170.463 0.492 170.789 0.3C171.118 0.108 171.475 0.0120003 171.861 0.0120003C172.247 0.0120003 172.602 0.108 172.928 0.3C173.257 0.492 173.518 0.752 173.711 1.08C173.904 1.404 174 1.758 174 2.142C174 2.526 173.904 2.882 173.711 3.21C173.518 3.534 173.257 3.792 172.928 3.984C172.602 4.176 172.247 4.272 171.861 4.272ZM171.861 3.96C172.19 3.96 172.494 3.88 172.771 3.72C173.048 3.556 173.267 3.336 173.428 3.06C173.592 2.78 173.675 2.474 173.675 2.142C173.675 1.814 173.592 1.512 173.428 1.236C173.267 0.956 173.048 0.734 172.771 0.57C172.494 0.406 172.19 0.324 171.861 0.324C171.532 0.324 171.228 0.406 170.951 0.57C170.674 0.734 170.453 0.956 170.288 1.236C170.128 1.512 170.047 1.814 170.047 2.142C170.047 2.474 170.128 2.78 170.288 3.06C170.453 3.336 170.674 3.556 170.951 3.72C171.228 3.88 171.532 3.96 171.861 3.96ZM170.987 0.9H172.132C172.381 0.9 172.57 0.968 172.699 1.104C172.831 1.236 172.897 1.416 172.897 1.644C172.897 1.812 172.861 1.958 172.789 2.082C172.717 2.202 172.61 2.29 172.47 2.346L172.994 3.372H172.542L172.06 2.418H171.415V3.372H170.987V0.9ZM172.072 2.064C172.192 2.064 172.287 2.028 172.355 1.956C172.427 1.88 172.464 1.776 172.464 1.644C172.464 1.516 172.429 1.42 172.361 1.356C172.297 1.288 172.2 1.254 172.072 1.254H171.415V2.064H172.072Z" fill="white"/>
<path fill-rule="evenodd" clip-rule="evenodd" d="M25.1019 18L25.8634 15.1622H30.9943L31.7559 18H37.9009L32.2079 0H24.8599L19.167 18H25.1019ZM30.0858 11.4331H26.7719L28.3012 5.02326H28.6007L30.0858 11.4331Z" fill="white"/>
<path d="M5.80362 11.1715V18H0V0H5.80362V6.56686H12.185V0H17.9886V18H12.185V11.1715H5.80362Z" fill="white"/>
<path fill-rule="evenodd" clip-rule="evenodd" d="M44.7233 11.4331V18H38.9197V0H49.9754C51.2709 0 52.3783 0.248547 53.2974 0.74564C54.2165 1.24273 54.9081 1.91424 55.372 2.76017C55.8359 3.60611 56.0679 4.52616 56.0679 5.52035C56.0679 6.61919 55.7703 7.61337 55.175 8.50291C54.5798 9.39244 53.7132 10.0465 52.5752 10.4651L56.5931 18H50.0805L46.8767 11.4331H44.7233ZM44.7233 7.43023H48.5311C48.9863 7.43023 49.3714 7.2689 49.6866 6.94622C50.0017 6.62355 50.1592 6.22674 50.1592 5.75581C50.1592 5.28488 50.0017 4.89244 49.6866 4.57849C49.3714 4.26454 48.9863 4.10756 48.5311 4.10756H44.7233V7.43023Z" fill="white"/>
<path fill-rule="evenodd" clip-rule="evenodd" d="M75.2626 9C75.2626 15 72.1026 18 65.7825 18H57.9568V0H65.7825C72.1026 0 75.2626 3 75.2626 9ZM63.7604 13.6831H65.6775C68.1109 13.6831 69.3277 12.3837 69.3277 9.78489V8.21512C69.3277 5.61628 68.1109 4.31686 65.6775 4.31686H63.7604V13.6831Z" fill="white"/>
<path d="M88.5749 7.03779L85.9382 18H80.1559L75.0294 0H81.6684L83.743 10.2035H83.848L85.8963 0H91.6212L93.8008 10.2035H93.9058L95.8491 0H102.225L97.099 18H91.3167L88.68 7.03779H88.5749Z" fill="white"/>
<path fill-rule="evenodd" clip-rule="evenodd" d="M105.364 18L106.125 15.1622H111.256L112.018 18H118.163L112.47 0H105.122L99.4288 18H105.364ZM110.348 11.4331H107.034L108.554 5.02326H108.862L110.348 11.4331Z" fill="white"/>
<path d="M127.236 18V4.60465H133.145V0H115.498V4.60465H121.433V18H127.236Z" fill="white"/>
<path d="M150.512 13.6831V18H134.703V0H150.328V4.31686H140.507V6.80233H148.91V10.936H140.507V13.6831H150.512Z" fill="white"/>
<path fill-rule="evenodd" clip-rule="evenodd" d="M157.774 18V11.4331H159.927L163.131 18H169.644L165.626 10.4651C166.764 10.0465 167.63 9.39244 168.226 8.50291C168.821 7.61337 169.119 6.61919 169.119 5.52035C169.119 4.52616 168.887 3.60611 168.423 2.76017C167.959 1.91424 167.267 1.24273 166.348 0.74564C165.429 0.248547 164.322 0 163.026 0H151.97V18H157.774ZM161.582 7.43023H157.774V4.10756H161.582C162.037 4.10756 162.422 4.26454 162.737 4.57849C163.052 4.89244 163.21 5.28488 163.21 5.75581C163.21 6.22674 163.052 6.62355 162.737 6.94622C162.422 7.2689 162.037 7.43023 161.582 7.43023Z" fill="white"/>
</svg>
