<svg width="638" height="163" viewBox="0 0 638 163" fill="none" xmlns="http://www.w3.org/2000/svg">
<path fill-rule="evenodd" clip-rule="evenodd" d="M318.971 119.441C324.712 122.907 331.483 124.641 339.284 124.641C345.134 124.641 350.388 123.503 355.047 121.228C359.813 118.845 363.28 115.811 365.447 112.128L366.747 122.528L390.31 122.528L390.31 -3.66863e-06L365.284 -3.43341e-06L365.284 48.7513C362.901 45.7179 359.488 43.2803 355.047 41.4386C350.713 39.5969 346.001 38.676 340.909 38.676C332.675 38.676 325.525 40.5177 319.458 44.2012C313.5 47.8846 308.895 53.0306 305.645 59.6391C302.395 66.1393 300.77 73.7228 300.77 82.3897C300.77 90.9483 302.341 98.4235 305.483 104.815C308.733 111.099 313.229 115.974 318.971 119.441ZM355.534 99.2901C352.609 100.915 349.196 101.728 345.296 101.728C341.396 101.728 337.984 100.861 335.059 99.1276C332.133 97.3942 329.858 95.0109 328.233 91.9774C326.717 88.944 325.958 85.4231 325.958 81.4147C325.958 77.4062 326.717 73.8853 328.233 70.8519C329.858 67.8185 332.133 65.4351 335.059 63.7017C337.984 61.9683 341.396 61.1016 345.296 61.1016C349.196 61.1016 352.609 61.9683 355.534 63.7017C358.568 65.3267 360.897 67.656 362.522 70.6894C364.255 73.7228 365.122 77.2979 365.122 81.4147C365.122 85.4231 364.255 88.9982 362.522 92.14C360.897 95.1734 358.568 97.5568 355.534 99.2901Z" fill="white"/>
<path fill-rule="evenodd" clip-rule="evenodd" d="M547.532 161.529L547.532 41.2761L571.095 41.2761L572.395 51.1889C574.67 47.3971 578.191 44.3637 582.958 42.0886C587.724 39.8135 592.979 38.676 598.721 38.676C606.304 38.676 612.967 40.3552 618.709 43.7137C624.45 47.0721 628.946 51.893 632.196 58.1765C635.447 64.3517 637.072 71.8269 637.072 80.6021C637.072 89.1607 635.555 96.7984 632.521 103.515C629.596 110.124 625.263 115.324 619.521 119.116C613.888 122.907 607.008 124.803 598.883 124.803C593.25 124.803 588.049 123.828 583.283 121.878C578.516 119.928 574.941 117.436 572.557 114.403L572.557 161.529L547.532 161.529ZM572.72 81.9022C572.72 85.9106 573.532 89.4857 575.157 92.6275C576.891 95.6609 579.22 98.0443 582.145 99.7776C585.179 101.403 588.645 102.215 592.545 102.215C596.554 102.215 599.966 101.349 602.783 99.6151C605.708 97.8818 607.929 95.4984 609.446 92.4649C611.071 89.4315 611.883 85.9106 611.883 81.9022C611.883 77.8937 611.071 74.3728 609.446 71.3394C607.929 68.306 605.708 65.9226 602.783 64.1892C599.966 62.4558 596.554 61.5891 592.545 61.5891C588.645 61.5891 585.179 62.4558 582.145 64.1892C579.22 65.8142 576.891 68.1435 575.157 71.1769C573.532 74.2103 572.72 77.7854 572.72 81.9022Z" fill="white"/>
<path d="M452.309 64.8392L452.309 41.2761C450.576 40.8428 448.897 40.5719 447.272 40.4636C445.755 40.2469 444.238 40.1386 442.722 40.1386C436.113 40.1386 430.859 41.9261 426.959 45.5012C424.515 47.7356 422.633 50.3751 421.315 53.4196L419.971 41.4386L396.408 41.4386L396.408 122.528L421.433 122.528L421.433 87.2648C421.433 79.2479 423.438 73.5061 427.446 70.0394C431.563 66.5726 437.196 64.8392 444.347 64.8392L452.309 64.8392Z" fill="white"/>
<path d="M302.501 41.2761L302.501 64.8392L294.538 64.8392C287.388 64.8392 281.754 66.5726 277.637 70.0394C273.629 73.5061 271.625 79.2479 271.625 87.2648L271.625 122.528L246.599 122.528L246.599 41.4386L270.162 41.4386L271.506 53.4196C272.825 50.3751 274.706 47.7356 277.15 45.5012C281.05 41.9261 286.304 40.1386 292.913 40.1386C294.429 40.1386 295.946 40.2469 297.463 40.4636C299.088 40.5719 300.767 40.8428 302.501 41.2761Z" fill="white"/>
<path fill-rule="evenodd" clip-rule="evenodd" d="M187.028 124.641C178.47 124.641 171.645 122.312 166.553 117.653C161.569 112.886 159.078 106.549 159.078 98.6401C159.078 91.1649 161.624 85.2064 166.715 80.7646C171.916 76.3229 179.391 73.7228 189.141 72.9644L211.892 71.1769L211.892 69.8769C211.892 67.1684 211.35 64.9476 210.267 63.2142C209.183 61.3725 207.612 60.0183 205.554 59.1516C203.604 58.1765 201.112 57.689 198.079 57.689C192.77 57.689 188.708 58.6641 185.891 60.6141C183.183 62.5642 181.828 65.3809 181.828 69.0643L161.028 69.0643C161.028 62.8892 162.599 57.5265 165.74 52.9764C168.882 48.4263 173.324 44.9054 179.066 42.4136C184.916 39.9219 191.687 38.676 199.379 38.676C207.287 38.676 213.95 40.0844 219.367 42.9011C224.892 45.7179 229.063 49.8347 231.88 55.2515C234.805 60.6683 236.267 67.2768 236.267 75.077L236.267 122.528L214.167 122.528L212.542 111.803C211.242 115.486 208.154 118.574 203.279 121.066C198.512 123.449 193.095 124.641 187.028 124.641ZM195.804 106.115C200.571 106.115 204.471 104.978 207.504 102.703C210.537 100.319 212.054 96.7984 212.054 92.14L212.054 87.7523L199.379 88.8899C193.962 89.3232 190.116 90.2441 187.841 91.6524C185.674 92.9525 184.591 94.9025 184.591 97.5026C184.591 100.428 185.512 102.594 187.354 104.003C189.195 105.411 192.012 106.115 195.804 106.115Z" fill="white"/>
<path fill-rule="evenodd" clip-rule="evenodd" d="M115.131 124.641C107.005 124.641 99.7468 122.799 93.3549 119.116C87.0714 115.432 82.088 110.395 78.4045 104.003C74.8294 97.5026 73.0419 90.0816 73.0419 81.7397C73.0419 73.2894 74.7753 65.8684 78.242 59.4766C81.8171 52.9764 86.7464 47.8846 93.0299 44.2012C99.3134 40.5177 106.518 38.676 114.643 38.676C123.202 38.676 130.568 40.4636 136.744 44.0387C142.919 47.5054 147.686 52.4889 151.044 58.9891C154.402 65.3809 156.082 73.0186 156.082 81.9022L156.082 88.2398L97.0363 88.5145C97.6827 92.9322 99.0556 96.4157 101.155 98.9651C104.297 102.54 109.118 104.328 115.618 104.328C120.385 104.328 124.339 103.515 127.481 101.89C130.623 100.265 132.627 97.9901 133.494 95.065L156.407 95.065C154.998 104.057 150.556 111.261 143.081 116.678C135.606 121.987 126.289 124.641 115.131 124.641ZM97.3923 73.1269L131.218 73.1269C131.218 68.7935 129.756 65.3809 126.831 62.8892C123.906 60.2891 119.897 58.9891 114.806 58.9891C110.58 58.9891 107.114 59.8016 104.405 61.4266C101.805 63.0517 99.8551 65.5976 98.5551 69.0643C98.081 70.2889 97.6935 71.6431 97.3923 73.1269Z" fill="white"/>
<path d="M-4.32815e-08 26.6507L34.1259 26.6507L34.1259 122.528L60.4516 122.528L60.4516 26.6507L94.5775 26.6507L94.5775 2.27505L-3.69475e-09 2.27505L-4.32815e-08 26.6507Z" fill="white"/>
<path fill-rule="evenodd" clip-rule="evenodd" d="M454.35 77.0779C454.35 89.3563 458.738 100.561 465.95 109.008L465.993 109.059C466.47 109.616 467.002 110.206 467.499 110.734L467.501 110.737C468.509 111.805 469.564 112.822 470.663 113.786C476.047 118.502 482.492 121.916 489.562 123.564C492.678 124.29 495.916 124.673 499.238 124.673C524.08 124.673 544.126 103.31 544.126 77.0779C544.126 76.7904 544.123 76.5035 544.118 76.2171C544.043 71.7362 543.384 67.4048 542.217 63.3059L542.186 63.1982C540.306 56.6475 537.128 50.6934 532.969 45.675L532.936 45.6354L529.51 41.8576L499.244 9.72827L467.935 42.9657C460.4 52 454.35 63.7095 454.35 77.0779ZM476.813 106.409L523.867 49.925L522.46 48.3743L499.244 23.7289L474.876 49.5978L474.828 49.6467C468.168 56.5187 463.95 66.2214 463.95 77.0779C463.95 87.0442 467.51 96.0455 473.248 102.771C473.252 102.776 474.005 103.545 474.818 104.374L474.833 104.389C475.782 105.356 476.806 106.401 476.813 106.409Z" fill="white"/>
<path d="M118.568 141.528C118.568 139.903 118.987 138.469 119.825 137.224C120.663 135.98 121.818 135.015 123.291 134.33C124.789 133.619 126.516 133.263 128.471 133.263C130.35 133.263 131.975 133.593 133.346 134.254C134.743 134.914 135.822 135.853 136.583 137.072C137.371 138.291 137.79 139.738 137.84 141.414L132.965 141.414C132.914 140.221 132.483 139.294 131.67 138.634C130.858 137.948 129.766 137.605 128.395 137.605C126.897 137.605 125.691 137.948 124.776 138.634C123.888 139.294 123.443 140.208 123.443 141.376C123.443 142.366 123.71 143.153 124.243 143.737C124.802 144.296 125.665 144.715 126.833 144.994L131.213 145.984C133.6 146.492 135.377 147.368 136.545 148.612C137.713 149.831 138.297 151.482 138.297 153.564C138.297 155.265 137.878 156.763 137.04 158.058C136.203 159.353 135.009 160.356 133.46 161.067C131.937 161.752 130.147 162.095 128.09 162.095C126.135 162.095 124.421 161.765 122.948 161.105C121.476 160.419 120.32 159.467 119.482 158.248C118.67 157.03 118.238 155.595 118.187 153.944L123.063 153.944C123.088 155.112 123.545 156.039 124.434 156.725C125.348 157.385 126.579 157.715 128.128 157.715C129.753 157.715 131.035 157.385 131.975 156.725C132.94 156.039 133.422 155.138 133.422 154.021C133.422 153.056 133.168 152.294 132.66 151.735C132.153 151.151 131.327 150.745 130.185 150.517L125.767 149.526C123.405 149.019 121.615 148.104 120.396 146.784C119.178 145.438 118.568 143.686 118.568 141.528Z" fill="white"/>
<path d="M307.039 141.528C307.039 139.903 307.458 138.469 308.295 137.224C309.133 135.98 310.289 135.015 311.761 134.33C313.259 133.619 314.986 133.263 316.941 133.263C318.82 133.263 320.445 133.593 321.816 134.254C323.213 134.914 324.292 135.853 325.054 137.072C325.841 138.291 326.26 139.738 326.311 141.414L321.435 141.414C321.385 140.221 320.953 139.294 320.141 138.634C319.328 137.948 318.236 137.605 316.865 137.605C315.367 137.605 314.161 137.948 313.247 138.634C312.358 139.294 311.914 140.208 311.914 141.376C311.914 142.366 312.18 143.153 312.714 143.737C313.272 144.296 314.135 144.715 315.303 144.994L319.684 145.984C322.07 146.492 323.848 147.368 325.016 148.612C326.184 149.831 326.768 151.482 326.768 153.564C326.768 155.265 326.349 156.763 325.511 158.058C324.673 159.353 323.48 160.356 321.931 161.067C320.407 161.752 318.617 162.095 316.56 162.095C314.605 162.095 312.891 161.765 311.419 161.105C309.946 160.419 308.791 159.467 307.953 158.248C307.14 157.03 306.708 155.595 306.658 153.944L311.533 153.944C311.558 155.112 312.015 156.039 312.904 156.725C313.818 157.385 315.05 157.715 316.598 157.715C318.224 157.715 319.506 157.385 320.445 156.725C321.41 156.039 321.893 155.138 321.893 154.021C321.893 153.056 321.639 152.294 321.131 151.735C320.623 151.151 319.798 150.745 318.655 150.517L314.237 149.526C311.876 149.019 310.086 148.104 308.867 146.784C307.648 145.438 307.039 143.686 307.039 141.528Z" fill="white"/>
<path d="M388.333 137.224C387.495 138.469 387.076 139.903 387.076 141.528C387.076 143.686 387.685 145.438 388.904 146.784C390.123 148.104 391.913 149.019 394.274 149.526L398.693 150.517C399.835 150.745 400.66 151.151 401.168 151.735C401.676 152.294 401.93 153.056 401.93 154.021C401.93 155.138 401.447 156.039 400.483 156.725C399.543 157.385 398.261 157.715 396.636 157.715C395.087 157.715 393.855 157.385 392.941 156.725C392.053 156.039 391.596 155.112 391.57 153.944L386.695 153.944C386.746 155.595 387.178 157.03 387.99 158.248C388.828 159.467 389.983 160.419 391.456 161.105C392.929 161.765 394.643 162.095 396.598 162.095C398.654 162.095 400.445 161.752 401.968 161.067C403.517 160.356 404.71 159.353 405.548 158.058C406.386 156.763 406.805 155.265 406.805 153.564C406.805 151.482 406.221 149.831 405.053 148.612C403.885 147.368 402.108 146.492 399.721 145.984L395.341 144.994C394.173 144.715 393.31 144.296 392.751 143.737C392.218 143.153 391.951 142.366 391.951 141.376C391.951 140.208 392.395 139.294 393.284 138.634C394.198 137.948 395.404 137.605 396.902 137.605C398.274 137.605 399.365 137.948 400.178 138.634C400.99 139.294 401.422 140.221 401.473 141.414L406.348 141.414C406.297 139.738 405.878 138.291 405.091 137.072C404.329 135.853 403.25 134.914 401.854 134.254C400.483 133.593 398.858 133.263 396.979 133.263C395.023 133.263 393.297 133.619 391.799 134.33C390.326 135.015 389.171 135.98 388.333 137.224Z" fill="white"/>
<path d="M433.757 138.253L425.606 138.253L425.606 133.758L446.782 133.758L446.782 138.253L438.632 138.253L438.632 161.6L433.756 161.6L433.757 138.253Z" fill="white"/>
<path d="M467.709 161.6L485 161.6L485 157.106L472.584 157.106L472.584 149.717L483.705 149.717L483.705 145.413L472.584 145.413L472.584 138.253L485 138.253L485 133.758L467.709 133.758L467.709 161.6Z" fill="white"/>
<path d="M512.171 161.6L507.449 161.6L507.449 133.758L512.171 133.758L521.16 155.925L530.148 133.758L534.947 133.758L534.947 161.6L530.225 161.6L530.225 149.526C530.225 148.562 530.237 147.749 530.263 147.089C530.288 146.429 530.313 145.845 530.339 145.337C530.364 144.829 530.415 144.321 530.491 143.813L523.407 161.6L518.913 161.6L511.867 143.851C511.994 144.689 512.07 145.756 512.095 147.051C512.146 148.346 512.171 149.869 512.171 151.621L512.171 161.6Z" fill="white"/>
<path d="M354.337 150.631L344.93 133.758L350.376 133.758L355.861 143.89C356.064 144.27 356.242 144.626 356.394 144.956L356.851 145.946C356.978 145.718 357.08 145.502 357.156 145.299C357.232 145.096 357.321 144.892 357.422 144.689C357.549 144.461 357.689 144.194 357.841 143.89L363.288 133.758L368.582 133.758L359.213 150.631L359.213 161.6L354.337 161.6L354.337 150.631Z" fill="white"/>
<path d="M235.11 161.6L239.909 161.6L239.909 141.861L253.011 161.6L257.81 161.6L257.81 133.758L253.011 133.758L253.011 153.526L239.947 133.758L235.11 133.758L235.11 161.6Z" fill="white"/>
<path d="M195.658 139.129C196.952 138.291 198.514 137.872 200.342 137.872C202.018 137.872 203.503 138.265 204.798 139.053C206.093 139.814 206.957 141.02 207.388 142.671L212.53 142.671C212.276 140.766 211.591 139.116 210.473 137.719C209.382 136.323 207.972 135.244 206.246 134.482C204.519 133.695 202.589 133.301 200.456 133.301C197.689 133.301 195.251 133.923 193.144 135.168C191.062 136.412 189.437 138.126 188.269 140.309C187.126 142.468 186.555 144.956 186.555 147.774C186.555 150.644 187.113 153.145 188.231 155.278C189.373 157.41 190.935 159.074 192.915 160.267C194.921 161.435 197.219 162.019 199.809 162.019C201.206 162.019 202.501 161.841 203.694 161.486C204.887 161.105 205.916 160.584 206.779 159.924C207.392 159.469 207.89 158.971 208.274 158.431L208.569 161.6L212.682 161.6L212.682 145.946L199.733 145.946L199.733 150.25L208.15 150.25L208.15 150.364C208.15 151.456 207.96 152.446 207.579 153.335C207.223 154.224 206.715 154.986 206.055 155.62C205.395 156.23 204.583 156.699 203.618 157.03C202.678 157.334 201.586 157.487 200.342 157.487C198.641 157.487 197.13 157.118 195.81 156.382C194.515 155.646 193.499 154.567 192.763 153.145C192.027 151.697 191.658 149.945 191.658 147.889C191.658 145.857 192.001 144.105 192.687 142.633C193.372 141.135 194.363 139.967 195.658 139.129Z" fill="white"/>
<path d="M164.783 161.6L164.783 133.758L159.908 133.758L159.908 161.6L164.783 161.6Z" fill="white"/>
<path d="M97.7197 161.6L80.4282 161.6L80.4282 133.758L97.7197 133.758L97.7197 138.253L85.3034 138.253L85.3034 145.413L96.4248 145.413L96.4248 149.717L85.3034 149.717L85.3034 157.106L97.7197 157.106L97.7197 161.6Z" fill="white"/>
<path fill-rule="evenodd" clip-rule="evenodd" d="M45.0518 161.6L35.0349 161.6L35.035 133.758L44.7852 133.758C47.5275 133.758 49.9396 134.355 52.0217 135.548C54.1038 136.716 55.7289 138.354 56.8969 140.462C58.0903 142.544 58.687 144.969 58.687 147.736C58.687 150.453 58.103 152.865 56.9349 154.973C55.7923 157.055 54.1927 158.68 52.136 159.848C50.1047 161.016 47.7433 161.6 45.0518 161.6ZM39.9101 157.106L39.9101 138.253L44.3282 138.253C46.2579 138.253 47.9083 138.634 49.2795 139.395C50.6506 140.157 51.7043 141.249 52.4407 142.671C53.177 144.067 53.5452 145.756 53.5452 147.736C53.5452 149.666 53.1897 151.329 52.4788 152.726C51.7678 154.122 50.7395 155.201 49.3937 155.963C48.048 156.725 46.4483 157.106 44.5948 157.106L39.9101 157.106Z" fill="white"/>
</svg>
